<?xml version="1.0" encoding="UTF-8"?>
<svg width="702px" height="702px" viewBox="0 0 702 702" version="1.1" xmlns="http://www.w3.org/2000/svg" xmlns:xlink="http://www.w3.org/1999/xlink">
    <!-- Generator: Sketch 46.2 (44496) - http://www.bohemiancoding.com/sketch -->
    <title>App/Logotype</title>
    <desc>Created with Sketch.</desc>
    <defs>
        <radialGradient cx="50%" cy="0%" fx="50%" fy="0%" r="100%" id="radialGradient-1">
            <stop stop-color="#E72951" offset="0%"></stop>
            <stop stop-color="#573030" offset="100%"></stop>
        </radialGradient>
        <radialGradient cx="26.7666903%" cy="25.3620926%" fx="26.7666903%" fy="25.3620926%" r="121.184703%" gradientTransform="translate(0.267667,0.253621),scale(1.000000,0.734598),rotate(56.819810),scale(1.000000,0.903641),translate(-0.267667,-0.253621)" id="radialGradient-2">
            <stop stop-color="#D64141" offset="0%"></stop>
            <stop stop-color="#DB3E4E" offset="46.749442%"></stop>
            <stop stop-color="#FF0057" offset="100%"></stop>
        </radialGradient>
        <path d="M240.444068,307 L240.444068,113 L177,113 L177,588.830511 L240.444068,576.934749 L240.444068,361.039003 C295.041097,349.808098 403.224029,349.814415 462.498307,361.403729 L462.498307,576.934749 L525.942375,588.830511 L525.942375,113 L462.498307,113 L462.498307,307 C401.248653,307 303.522287,307 239.789026,307 Z" id="path-3"></path>
    </defs>
    <g id="Symbols" stroke="none" stroke-width="1" fill="none" fill-rule="evenodd">
        <g id="App/Logotype">
            <rect id="RoundedWrapper" stroke="url(#radialGradient-1)" stroke-width="4" x="31" y="31" width="640" height="640" rx="8"></rect>
            <g id="LogotypeShape">
                <use fill="url(#radialGradient-2)" fill-rule="evenodd" xlink:href="#path-3"></use>
                <path stroke="#F72840" stroke-width="1" d="M462.998307,113.5 L462.998307,113 L462.498307,113.5 L462.998307,113.5 Z M525.442375,113.5 L525.942375,113.5 L525.442375,113 L525.442375,113.5 Z M525.442375,588.228048 L525.442375,588.830511 L526.034519,588.339075 L525.442375,588.228048 Z M462.998307,576.519785 L462.590451,576.443313 L462.998307,576.934749 L462.998307,576.519785 Z M239.944068,576.519785 L239.944068,576.934749 L240.351924,576.443313 L239.944068,576.519785 Z M177.5,588.228048 L176.907856,588.339075 L177.5,588.830511 L177.5,588.228048 Z M177.5,113.5 L177.5,113 L177,113.5 L177.5,113.5 Z M239.944068,113.5 L240.444068,113.5 L239.944068,113 L239.944068,113.5 Z M239.944068,306.5 L239.944068,307 L240.444068,306.5 L239.944068,306.5 Z M239.944068,306.5 L239.789026,306.5 L239.789026,307.5 L462.998307,307.5 L462.998307,113.5 L525.442375,113.5 L525.442375,588.228048 L462.998307,576.519785 L462.998307,360.992022 L462.59425,360.913021 C403.552355,349.369141 295.28481,349.247496 240.343325,360.549258 L239.944068,360.631387 L239.944068,576.519785 L177.5,588.228048 L177.5,113.5 L239.944068,113.5 L239.944068,306.5 Z"></path>
            </g>
            <path d="M462.998307,113.5 L462.998307,113 L462.498307,113.5 L462.998307,113.5 Z M525.442375,113.5 L525.942375,113.5 L525.442375,113 L525.442375,113.5 Z M525.442375,588.228048 L525.442375,588.830511 L526.034519,588.339075 L525.442375,588.228048 Z M462.998307,576.519785 L462.590451,576.443313 L462.998307,576.934749 L462.998307,576.519785 Z M239.944068,576.519785 L239.944068,576.934749 L240.351924,576.443313 L239.944068,576.519785 Z M177.5,588.228048 L176.907856,588.339075 L177.5,588.830511 L177.5,588.228048 Z M177.5,113.5 L177.5,113 L177,113.5 L177.5,113.5 Z M239.944068,113.5 L240.444068,113.5 L239.944068,113 L239.944068,113.5 Z M239.944068,306.5 L239.944068,307 L240.444068,306.5 L239.944068,306.5 Z M239.944068,306.5 L239.789026,306.5 L239.789026,307.5 L462.998307,307.5 L462.998307,113.5 L525.442375,113.5 L525.442375,588.228048 L462.998307,576.519785 L462.998307,360.992022 L462.59425,360.913021 C403.552355,349.369141 295.28481,349.247496 240.343325,360.549258 L239.944068,360.631387 L239.944068,576.519785 L177.5,588.228048 L177.5,113.5 L239.944068,113.5 L239.944068,306.5 Z" id="LogotypeShape" stroke="#F72840" opacity="0.827955163"></path>
        </g>
    </g>
</svg>